 http://img714.imageshack.us/img714/3126/wrongturny.jpg


Verenigde Staten
Horror / Actie

geregisseerd door Declan O'Brien
met Terra Vnesa, Dean Armstrong en Tenika Davis

Een groep vrienden besluit tijdens hun wintervakantie met een sneeuwscooter rond te trekken. Ze nemen een verkeerde afslag en komen terecht in een storm. Ze zoeken hun toevlucht in een verlaten sanatorium. Door de storm kunnen de vrienden niet naar buiten en ze zijn blij dat ze ergens kunnen verblijven. Maar wat ze niet weten is dat het sanatorium een vreselijk verleden heeft en dat een aantal voormalige patiënten er nog steeds woont. Een dodelijk kat-en-muisspel begint.


Vertaald door Simply ReleaseS Toppers
TackleR en Suurtje





Screenshots:
 
http://img811.imageshack.us/img811/4756/screenshot1niv.jpg
 
http://img189.imageshack.us/img189/6792/screenshot2sg.jpg
 
http://img543.imageshack.us/img543/1083/screenshot3ci.jpg
 
http://img217.imageshack.us/img217/4551/screenshot4uve.jpg




INFO;

Video
ID                                       : 0
Format                                   : MPEG-4 Visual
Format profile                           : Advanced Simple@L5
Format settings, BVOP                    : 1
Format settings, QPel                    : No
Format settings, GMC                     : No warppoints
Format settings, Matrix                  : Custom
Codec ID                                 : XVID
Codec ID/Hint                            : XviD
Duration                                 : 1h 33mn
Bit rate                                 : 926 Kbps
Width                                    : 608 pixels
Height                                   : 352 pixels
Display aspect ratio                     : 16:9
Frame rate                               : 23.976 fps
Color space                              : YUV
Chroma subsampling                       : 4:2:0
Bit depth                                : 8 bits
Scan type                                : Progressive
Compression mode                         : Lossy
Bits/(Pixel*Frame)                       : 0.180
Stream size                              : 618 MiB (88%)
Writing library                          : XviD 64

Audio
ID                                       : 1
Format                                   : MPEG Audio
Format version                           : Version 1
Format profile                           : Layer 3
Mode                                     : Joint stereo
Mode extension                           : MS Stereo
Codec ID                                 : 55
Codec ID/Hint                            : MP3
Duration                                 : 1h 33mn
Bit rate mode                            : Variable
Bit rate                                 : 110 Kbps
Nominal bit rate                         : 128 Kbps
Channel(s)                               : 2 channels
Sampling rate                            : 48.0 KHz
Compression mode                         : Lossy
Stream size                              : 73.6 MiB (11%)
Alignment                                : Aligned on interleaves
Interleave, duration                     : 24 ms (0.58 video frame)
Interleave, preload duration             : 167 ms
Writing library                          : LAME3.98r



 
http://www.imdb.com/title/tt1865567/ 
http://www.moviemeter.nl/film/77316



Deze film wordt u aangeboden door het DutchReleaseTeam.
Voor de reviews van de nieuwste films, muziek, series, games etc
ga dan eens naar http://www.hetmultimediacafe.be

DutchReleaseteam = Hardcoded Dutch Subs